<?xml version="1.0" encoding="UTF-8"?>
<svg width="30px" height="30px" viewBox="0 0 30 30" version="1.1" xmlns="http://www.w3.org/2000/svg" xmlns:xlink="http://www.w3.org/1999/xlink">
    <!-- Generator: sketchtool 50.2 (55047) - http://www.bohemiancoding.com/sketch -->
    <title>DA3CF50D-A1D4-4EC2-A74A-6DB107C80968</title>
    <desc>Created with sketchtool.</desc>
    <defs></defs>
    <g id="Page-1" stroke="none" stroke-width="1" fill="none" fill-rule="evenodd">
        <g id="UI-KIT" transform="translate(-161.000000, -1407.000000)" fill="#4A4A4A" fill-rule="nonzero">
            <g id="delivery-box" transform="translate(161.000000, 1407.000000)">
                <path d="M29.983125,6.48 C29.9775,6.41625 29.964375,6.35625 29.945625,6.294375 C29.926875,6.2325 29.904375,6.17625 29.874375,6.12 C29.86125,6.095625 29.859375,6.065625 29.8425,6.04125 L26.0925,0.41625 C25.918125,0.1575 25.625625,0 25.3125,0 L4.6875,0 C4.374375,0 4.081875,0.1575 3.9075,0.418125 L0.1575,6.043125 C0.140625,6.0675 0.13875,6.095625 0.125625,6.121875 C0.095625,6.178125 0.073125,6.234375 0.054375,6.29625 C0.035625,6.358125 0.0225,6.418125 0.016875,6.481875 C0.013125,6.508125 0,6.5325 0,6.5625 L0,28.125 C0,29.16 0.841875,30 1.875,30 L28.125,30 C29.158125,30 30,29.16 30,28.125 L30,6.5625 C30,6.5325 29.986875,6.508125 29.983125,6.48 Z M24.81,1.875 L27.31125,5.625 L18.6075,5.625 L17.98125,1.875 L24.81,1.875 Z M13.918125,1.875 L16.08,1.875 L16.70625,5.625 L13.29375,5.625 L13.918125,1.875 Z M13.125,7.5 L16.875,7.5 L16.875,10.888125 L15.29625,10.359375 C15.103125,10.2975 14.895,10.2975 14.70375,10.359375 L13.125,10.888125 L13.125,7.5 Z M5.19,1.875 L12.01875,1.875 L11.3925,5.625 L2.68875,5.625 L5.19,1.875 Z M28.125,29.0625 L28.125,28.125 L1.875,28.125 L1.875,7.5 L11.25,7.5 L11.25,12.1875 C11.25,12.489375 11.394375,12.7725 11.64,12.946875 C11.88375,13.125 12.196875,13.16625 12.48375,13.078125 L15,12.238125 L17.51625,13.07625 C17.61375,13.108125 17.713125,13.125 17.8125,13.125 C18.0075,13.125 18.19875,13.065 18.36,12.946875 C18.605625,12.7725 18.75,12.489375 18.75,12.1875 L18.75,7.5 L28.125,7.5 L28.125,28.125 C28.125,28.125 28.125,28.125 28.126875,28.125 L28.125,29.0625 Z" id="Shape"></path>
                <path d="M22.7014122,14.8794736 C22.3032952,14.6255862 21.6560999,14.6242842 21.2559413,14.8781716 L11.9277535,20.8256455 L8.5366133,17.5823973 C8.22424457,17.2829405 7.58929898,17.2022173 7.1217667,17.4014212 C6.6521928,17.6006251 6.525612,18.0055429 6.83798073,18.3036978 L10.9212321,22.209657 C11.090687,22.3724053 11.3663065,22.4765642 11.6705087,22.497396 C11.7031747,22.498698 11.7378824,22.5 11.7705484,22.5 C12.040043,22.5 12.2993294,22.4322967 12.4932839,22.30991 L22.7014122,15.7999779 C23.0995293,15.5460906 23.0995293,15.1333609 22.7014122,14.8794736 Z" id="Shape"></path>
            </g>
        </g>
    </g>
</svg>