<?xml version="1.0" encoding="UTF-8"?>
<svg width="18px" height="16px" viewBox="0 0 18 16" version="1.1" xmlns="http://www.w3.org/2000/svg" xmlns:xlink="http://www.w3.org/1999/xlink">
    <!-- Generator: sketchtool 51.3 (57544) - http://www.bohemiancoding.com/sketch -->
    <title>5D7B9C59-0881-4F49-88B7-7E10891C8A45</title>
    <desc>Created with sketchtool.</desc>
    <defs></defs>
    <g id="Pagina-de-Marcas-casuisticas" stroke="none" stroke-width="1" fill="none" fill-rule="evenodd">
        <g id="Desktop-HD-Listado-Marcas-Sin-logo" transform="translate(-629.000000, -5.000000)" fill="#FFFFFF" fill-rule="nonzero">
            <g id="Header">
                <g id="Faja-ventajas">
                    <g>
                        <g id="free-delivery" transform="translate(629.000000, 5.000000)">
                            <path d="M17.989875,3.36457143 C17.9865,3.3314709 17.978625,3.30031746 17.967375,3.26819048 C17.956125,3.23606349 17.942625,3.20685714 17.924625,3.17765079 C17.91675,3.16499471 17.915625,3.14941799 17.9055,3.1367619 L15.6555,0.216126984 C15.550875,0.0817777778 15.375375,0 15.1875,0 L2.8125,0 C2.624625,0 2.449125,0.0817777778 2.3445,0.217100529 L0.0945,3.13773545 C0.084375,3.15039153 0.08325,3.16499471 0.075375,3.17862434 C0.057375,3.20783069 0.043875,3.23703704 0.032625,3.26916402 C0.021375,3.30129101 0.0135,3.33244444 0.010125,3.36554497 C0.007875,3.3791746 0,3.39183069 0,3.40740741 L0,14.6031746 C0,15.1405714 0.505125,15.5767196 1.125,15.5767196 L16.875,15.5767196 C17.494875,15.5767196 18,15.1405714 18,14.6031746 L18,3.40740741 C18,3.39183069 17.992125,3.3791746 17.989875,3.36457143 Z M14.886,0.973544974 L16.38675,2.92063492 L11.1645,2.92063492 L10.78875,0.973544974 L14.886,0.973544974 Z M8.350875,0.973544974 L9.648,0.973544974 L10.02375,2.92063492 L7.97625,2.92063492 L8.350875,0.973544974 Z M7.875,3.89417989 L10.125,3.89417989 L10.125,5.65337566 L9.17775,5.37883598 C9.061875,5.34670899 8.937,5.34670899 8.82225,5.37883598 L7.875,5.65337566 L7.875,3.89417989 Z M3.114,0.973544974 L7.21125,0.973544974 L6.8355,2.92063492 L1.61325,2.92063492 L3.114,0.973544974 Z M16.875,15.0899471 L16.875,14.6031746 L1.125,14.6031746 L1.125,3.89417989 L6.75,3.89417989 L6.75,6.32804233 C6.75,6.48478307 6.836625,6.63178836 6.984,6.72232804 C7.13025,6.81481481 7.318125,6.8362328 7.49025,6.79047619 L9,6.35432804 L10.50975,6.78950265 C10.56825,6.80605291 10.627875,6.81481481 10.6875,6.81481481 C10.8045,6.81481481 10.91925,6.78366138 11.016,6.72232804 C11.163375,6.63178836 11.25,6.48478307 11.25,6.32804233 L11.25,3.89417989 L16.875,3.89417989 L16.875,14.6031746 C16.875,14.6031746 16.875,14.6031746 16.876125,14.6031746 L16.875,15.0899471 Z" id="Shape"></path>
                            <path d="M14.0717614,5.96826948 C13.8341099,5.79951468 13.4477739,5.79864927 13.2089037,5.96740407 L7.64054676,9.92059343 L5.61624365,7.76485904 C5.42977865,7.56581492 5.050755,7.51215954 4.77166686,7.64456716 C4.49135999,7.77697477 4.415799,8.04611704 4.60226401,8.24429575 L7.03971507,10.8405234 C7.14086929,10.9486996 7.30539724,11.0179323 7.48698734,11.0317789 C7.50648695,11.0326443 7.52720529,11.0335097 7.54670489,11.0335097 C7.70757666,11.0335097 7.86235481,10.9885084 7.97813373,10.90716 L14.0717614,6.5801138 C14.3094129,6.411359 14.3094129,6.13702428 14.0717614,5.96826948 Z" id="Shape"></path>
                        </g>
                    </g>
                </g>
            </g>
        </g>
    </g>
</svg>